<svg xmlns="http://www.w3.org/2000/svg" xmlns:xlink="http://www.w3.org/1999/xlink" width="30px" height="30px" viewBox="-3 -3 36 36" version="1.1" transform="matrix(1, 0, 0, 1, 0, 0)"><g id="deeditor_bgCarrier" stroke-width="0">
  <rect id="dee_c_e" x="-3" y="-3" width="36" height="36" rx="38.4" fill="#cf0000" strokewidth="0"/>
</g>
<g id="surface1">
<path style=" stroke:none;fill-rule:nonzero;fill:#cfcfcf;fill-opacity:1;" d="M 14.90625 1.617188 C 12.5625 1.617188 10.335938 2.296875 8.484375 3.46875 L 6.421875 1.96875 L 7.21875 4.40625 C 4.570312 6.609375 2.882812 9.9375 2.882812 13.664062 C 2.882812 14.71875 3.023438 15.75 3.28125 16.734375 L 1.125 18.28125 L 3.796875 18.28125 C 5.53125 22.40625 9.46875 25.359375 14.109375 25.664062 L 15 28.382812 L 15.867188 25.664062 C 20.460938 25.289062 24.328125 22.359375 26.015625 18.28125 L 28.875 18.28125 L 26.578125 16.640625 C 26.8125 15.679688 26.953125 14.671875 26.953125 13.664062 C 26.953125 10.007812 25.3125 6.726562 22.734375 4.523438 L 23.578125 1.96875 L 21.421875 3.539062 C 19.546875 2.320312 17.320312 1.617188 14.90625 1.617188 Z M 15.421875 2.71875 C 17.273438 2.8125 18.984375 3.351562 20.484375 4.21875 L 19.453125 4.96875 C 18.234375 4.335938 16.875 3.9375 15.421875 3.867188 Z M 14.320312 2.71875 L 14.320312 3.867188 C 12.9375 3.960938 11.625 4.335938 10.453125 4.921875 L 9.421875 4.171875 C 10.945312 3.28125 12.773438 2.8125 14.320312 2.71875 Z M 21.46875 4.898438 L 19.382812 11.25 C 19.054688 10.6875 18.632812 10.195312 18.140625 9.796875 C 19.242188 8.15625 20.34375 6.515625 21.46875 4.898438 Z M 8.554688 4.898438 L 13.875 8.765625 C 13.21875 8.90625 12.609375 9.1875 12.046875 9.539062 C 10.875 7.992188 9.726562 6.445312 8.554688 4.898438 Z M 15.421875 4.96875 C 16.5 5.015625 17.53125 5.273438 18.46875 5.695312 L 15.421875 7.921875 Z M 14.320312 4.96875 L 14.320312 7.734375 L 11.460938 5.671875 C 12.351562 5.273438 13.3125 5.039062 14.320312 4.96875 Z M 7.59375 5.53125 L 7.96875 6.75 C 6.984375 7.734375 6.234375 8.953125 5.742188 10.289062 L 4.617188 9.9375 C 5.390625 8.203125 6.398438 6.609375 7.59375 5.53125 Z M 22.382812 5.648438 C 23.625 6.796875 24.585938 8.25 25.171875 9.867188 L 24.070312 10.21875 C 23.601562 8.953125 22.875 7.828125 21.984375 6.867188 Z M 8.367188 7.921875 L 9.539062 11.53125 L 6.773438 10.640625 C 7.148438 9.632812 7.6875 8.71875 8.367188 7.921875 Z M 21.585938 8.0625 C 22.195312 8.8125 22.6875 9.65625 23.015625 10.546875 L 20.507812 11.367188 Z M 14.90625 9.75 C 17.15625 9.75 18.984375 11.578125 18.984375 13.828125 C 18.984375 16.078125 17.15625 17.882812 14.90625 17.882812 C 12.65625 17.882812 10.851562 16.078125 10.851562 13.828125 C 10.851562 11.578125 12.65625 9.75 14.90625 9.75 Z M 25.5 10.898438 C 25.734375 11.789062 25.875 12.703125 25.875 13.664062 C 25.875 14.4375 25.78125 15.210938 25.617188 15.9375 L 24.5625 15.164062 C 24.632812 14.671875 24.679688 14.132812 24.679688 13.59375 C 24.679688 12.796875 24.5625 12.023438 24.398438 11.273438 C 24.773438 11.15625 25.148438 11.015625 25.5 10.898438 Z M 4.3125 10.992188 L 5.4375 11.34375 C 5.25 12.070312 5.15625 12.84375 5.15625 13.59375 C 5.15625 14.179688 5.203125 14.71875 5.296875 15.28125 L 4.21875 16.03125 C 4.054688 15.257812 3.984375 14.460938 3.984375 13.664062 C 4.007812 12.726562 4.101562 11.765625 4.3125 10.992188 Z M 23.34375 11.601562 C 23.507812 12.234375 23.578125 12.914062 23.578125 13.59375 C 23.578125 13.875 23.578125 14.15625 23.53125 14.4375 L 20.765625 12.421875 C 21.632812 12.164062 22.5 11.882812 23.34375 11.601562 Z M 6.46875 11.671875 L 9.09375 12.515625 L 6.304688 14.53125 C 6.28125 14.226562 6.257812 13.921875 6.257812 13.59375 C 6.28125 12.9375 6.328125 12.234375 6.46875 11.671875 Z M 20.039062 13.265625 L 25.429688 17.15625 L 19.875 15.257812 C 20.0625 14.53125 20.109375 13.921875 20.039062 13.265625 Z M 10.054688 15.515625 C 10.265625 16.125 10.59375 16.6875 11.015625 17.179688 L 4.59375 17.203125 C 6.398438 16.640625 8.226562 16.078125 10.054688 15.515625 Z M 11.039062 18.28125 L 9.421875 20.296875 C 8.71875 19.734375 8.109375 19.03125 7.617188 18.28125 C 8.765625 18.28125 9.890625 18.28125 11.039062 18.28125 Z M 19.007812 18.28125 L 22.21875 18.28125 C 21.75 19.007812 21.1875 19.640625 20.53125 20.203125 C 20.015625 19.546875 19.5 18.914062 19.007812 18.28125 Z M 23.484375 18.28125 L 24.84375 18.28125 C 24.164062 19.734375 23.203125 21 21.984375 22.007812 L 21.234375 21.046875 C 22.125 20.273438 22.898438 19.335938 23.484375 18.28125 Z M 6.351562 18.28125 C 6.960938 19.382812 7.78125 20.367188 8.742188 21.140625 L 7.96875 22.125 C 6.703125 21.09375 5.695312 19.78125 4.992188 18.28125 Z M 17.015625 18.515625 L 15 24.796875 L 15 18.984375 C 15.726562 18.914062 16.453125 18.773438 17.015625 18.515625 Z M 18.070312 18.867188 L 19.664062 20.859375 C 18.867188 21.375 18 21.773438 17.0625 22.007812 C 17.390625 20.953125 17.71875 19.921875 18.070312 18.867188 Z M 11.953125 18.890625 L 12.960938 22.054688 C 12 21.820312 11.109375 21.445312 10.3125 20.953125 C 10.851562 20.25 11.390625 19.59375 11.953125 18.890625 Z M 20.34375 21.703125 L 21.117188 22.6875 C 19.6875 23.648438 18.046875 24.304688 16.242188 24.515625 L 16.664062 23.203125 C 18.046875 22.875 19.335938 22.382812 20.34375 21.703125 Z M 9.609375 21.796875 C 10.734375 22.523438 12 23.015625 13.335938 23.25 L 13.757812 24.539062 C 11.953125 24.351562 10.265625 23.71875 8.859375 22.78125 Z M 9.609375 21.796875 "/>
</g>
</svg>